<svg width="984" height="907" viewBox="0 0 984 907" fill="none" xmlns="http://www.w3.org/2000/svg">
<circle cx="449.502" cy="449.5" r="449.5" fill="url(#paint0_linear_923_221)"/>
<g filter="url(#filter0_d_923_221)">
<path d="M421.502 475C431.835 472 442.669 467 454.002 460C465.335 452.667 472.502 449 475.502 449C478.502 449 480.002 451 480.002 455C480.002 458.667 477.669 462.167 473.002 465.5C456.002 477.5 438.335 486.667 420.002 493C413.002 525.333 397.335 549.5 373.002 565.5C348.669 581.5 320.835 589.5 289.502 589.5C269.502 589.5 251.835 586 236.502 579C221.502 572 210.002 563 202.002 552C186.002 530.333 178.002 507.5 178.002 483.5C178.002 452.5 182.669 424.5 192.002 399.5C201.669 374.167 214.169 354 229.502 339C244.835 323.667 261.335 312 279.002 304C297.002 296 315.169 292 333.502 292C351.835 292 368.669 298 384.002 310C399.335 321.667 407.002 335.167 407.002 350.5C407.002 355.5 405.002 359.667 401.002 363C397.335 366.333 392.835 368 387.502 368C379.835 368 374.502 362.667 371.502 352C364.169 326.333 346.669 313.5 319.002 313.5C295.669 313.5 273.002 328 251.002 357C229.335 386 218.502 420.333 218.502 460C218.502 488 226.835 512.333 243.502 533C260.502 553.667 281.669 564 307.002 564C327.335 564 344.669 558.167 359.002 546.5C373.335 534.833 382.502 519.833 386.502 501.5C378.169 503.167 368.002 504 356.002 504C344.002 504 333.502 501.167 324.502 495.5C315.835 489.833 311.502 482.167 311.502 472.5C311.502 462.5 316.502 454 326.502 447C336.835 440 349.835 436.5 365.502 436.5C381.169 436.5 394.335 439.667 405.002 446C416.002 452.333 421.502 462 421.502 475ZM364.002 453.5C349.002 453.5 341.502 456.833 341.502 463.5C341.502 468.5 344.502 472.667 350.502 476C356.502 479.333 362.669 481 369.002 481C375.669 481 382.335 480.667 389.002 480C388.669 472 386.002 465.667 381.002 461C376.002 456 370.335 453.5 364.002 453.5ZM553.893 404.5C558.559 368.5 569.393 340.833 586.393 321.5C603.726 301.833 626.393 292 654.393 292C682.393 292 696.393 301.667 696.393 321C696.393 334 693.226 346 686.893 357C680.893 367.667 672.726 376.667 662.393 384C642.059 397.667 618.226 407.5 590.893 413.5C584.226 470.833 574.393 511.833 561.393 536.5C592.059 546.833 612.726 553.5 623.393 556.5C634.059 559.167 645.226 560.5 656.893 560.5C668.893 560.5 677.059 555.667 681.393 546C685.726 536.333 688.893 531.5 690.893 531.5C694.893 531.5 696.893 534 696.893 539C696.893 554.667 691.059 568 679.393 579C667.726 590 655.059 595.5 641.393 595.5C627.393 595.5 614.726 593.167 603.393 588.5C592.059 583.833 584.893 580.833 581.893 579.5C578.893 578.167 572.726 575.333 563.393 571C554.393 566.667 548.059 563.667 544.393 562C531.726 575.333 514.726 582 493.393 582C484.726 582 477.059 578.833 470.393 572.5C463.726 566.167 460.393 558.667 460.393 550C460.393 531 471.226 521.5 492.893 521.5C502.226 521.5 515.226 523.667 531.893 528C538.226 508 544.893 471.667 551.893 419C548.226 419.333 543.226 419.5 536.893 419.5C530.893 419.5 527.893 418.5 527.893 416.5C527.893 410.167 536.559 406.167 553.893 404.5ZM592.393 399C613.726 394.333 631.226 386.5 644.893 375.5C658.893 364.167 665.893 349.5 665.893 331.5C665.893 313.5 659.726 304.5 647.393 304.5C620.393 304.5 602.059 336 592.393 399ZM520.393 551.5C501.059 543.167 489.059 539 484.393 539C480.059 539 477.893 541.333 477.893 546C477.893 550.667 479.893 554.667 483.893 558C488.226 561.333 493.726 563 500.393 563C507.059 563 513.726 559.167 520.393 551.5Z" fill="white"/>
</g>
<defs>
<filter id="filter0_d_923_221" x="178.002" y="292" width="518.891" height="303.5" filterUnits="userSpaceOnUse" color-interpolation-filters="sRGB">
<feFlood flood-opacity="0" result="BackgroundImageFix"/>
<feColorMatrix in="SourceAlpha" type="matrix" values="0 0 0 0 0 0 0 0 0 0 0 0 0 0 0 0 0 0 127 0" result="hardAlpha"/>
<feOffset/>
<feComposite in2="hardAlpha" operator="out"/>
<feColorMatrix type="matrix" values="0 0 0 0 0 0 0 0 0 0 0 0 0 0 0 0 0 0 0.25 0"/>
<feBlend mode="normal" in2="BackgroundImageFix" result="effect1_dropShadow_923_221"/>
<feBlend mode="normal" in="SourceGraphic" in2="effect1_dropShadow_923_221" result="shape"/>
</filter>
<linearGradient id="paint0_linear_923_221" x1="152.002" y1="221.5" x2="499.002" y2="617" gradientUnits="userSpaceOnUse">
<stop stop-color="#9399F0"/>
<stop offset="1" stop-color="#563457"/>
</linearGradient>
</defs>
</svg>
