<svg width="763" height="4899" viewBox="0 0 763 4899" fill="none" xmlns="http://www.w3.org/2000/svg">
<path d="M763 4897.97L762.988 113.01C762.988 113.01 728.109 -7.93922 396.566 70.0642C65.0225 148.068 0.000101575 55.0453 0.000101575 55.0453L0.0177258 4897.97C0.0177258 4897.97 362.767 4897.97 375.796 4897.97C388.825 4897.97 763 4897.97 763 4897.97Z" fill="url(#paint0_linear_983_195)"/>
<path d="M763 4897.97L762.997 76.1993C762.997 76.1993 692.94 -16.937 390.447 93.5705C87.953 204.078 0.0177258 0 0.0177258 0V4897.97C0.0177258 4897.97 362.767 4897.97 375.796 4897.97C388.825 4897.97 677.868 4897.97 763 4897.97Z" fill="url(#paint1_linear_983_195)" fill-opacity="0.5"/>
<path d="M763 4897.97V35.5547C763 35.5547 621.6 -4.32308 396.566 107.905C171.532 220.134 0 30.6983 0 30.6983L0.0177258 4897.97C0.0177258 4897.97 67.3548 4896.88 375.796 4897.97C684.237 4899.07 723.085 4897.97 763 4897.97Z" fill="url(#paint2_linear_983_195)"/>
<defs>
<linearGradient id="paint0_linear_983_195" x1="381.502" y1="-118.119" x2="381.502" y2="2704" gradientUnits="userSpaceOnUse">
<stop stop-color="#9399F0"/>
<stop offset="1" stop-color="#563457"/>
</linearGradient>
<linearGradient id="paint1_linear_983_195" x1="147.054" y1="301.34" x2="812.258" y2="379.163" gradientUnits="userSpaceOnUse">
<stop offset="0.384615" stop-color="#2C192C"/>
<stop offset="1" stop-color="#9399F0" stop-opacity="0.7"/>
</linearGradient>
<linearGradient id="paint2_linear_983_195" x1="113.509" y1="964.255" x2="266.172" y2="1437.81" gradientUnits="userSpaceOnUse">
<stop stop-color="#563457" stop-opacity="0.3"/>
<stop offset="0.961538" stop-color="#9399F0" stop-opacity="0.3"/>
</linearGradient>
</defs>
</svg>
