<svg width="1918" height="4360" viewBox="0 0 1918 4360" fill="none" xmlns="http://www.w3.org/2000/svg">
<path d="M0.00127613 2996.09L0.0013124 1033.38C0.0013124 1033.38 452 1150.65 452 1844.37C452 2537.49 0.772199 4118.05 0.00105063 4120.76C0.00067743 4659.05 -1.74864e-05 4120.76 -1.74864e-05 4120.76C-1.74864e-05 4120.76 0.000379242 4120.76 0.00105063 4120.76C0.00119449 3921.22 0.00130138 3573.75 0.00127613 2996.09Z" fill="url(#paint0_linear_869_138)" fill-opacity="0.7"/>
<path d="M0 0C0 0 623.878 194.499 588.555 851.498C553.231 1508.5 68.6887 1794.5 0 3263V0Z" fill="url(#paint1_linear_869_138)"/>
<path d="M0 96.998C0 96.998 362.568 297.999 338.5 954.998C314.432 1612 46.8014 1794 0 3262.5V96.998Z" fill="url(#paint2_linear_869_138)"/>
<path d="M1918 2996.09L1918 1033.38C1918 1033.38 1466 1150.65 1466 1844.37C1466 2537.49 1917.23 4118.05 1918 4120.76C1918 4659.05 1918 4120.76 1918 4120.76C1918 4120.76 1918 4120.76 1918 4120.76C1918 3921.22 1918 3573.75 1918 2996.09Z" fill="url(#paint3_linear_869_138)" fill-opacity="0.7"/>
<path d="M1918 0C1918 0 1294.12 194.499 1329.45 851.498C1364.77 1508.5 1849.31 1794.5 1918 3263V0Z" fill="url(#paint4_linear_869_138)"/>
<path d="M1918 96.998C1918 96.998 1555.43 297.999 1579.5 954.998C1603.57 1612 1871.2 1794 1918 3262.5V96.998Z" fill="url(#paint5_linear_869_138)"/>
<defs>
<linearGradient id="paint0_linear_869_138" x1="495" y1="1833.5" x2="-387.847" y2="1850.77" gradientUnits="userSpaceOnUse">
<stop stop-color="#9399F0"/>
<stop offset="0.615385" stop-color="#302024" stop-opacity="0"/>
</linearGradient>
<linearGradient id="paint1_linear_869_138" x1="1568.05" y1="800" x2="-506.971" y2="486.785" gradientUnits="userSpaceOnUse">
<stop stop-color="#9399F0"/>
<stop offset="1" stop-opacity="0"/>
</linearGradient>
<linearGradient id="paint2_linear_869_138" x1="254.5" y1="312.5" x2="-8.79905e-06" y2="347" gradientUnits="userSpaceOnUse">
<stop stop-color="#9399F0"/>
<stop offset="1" stop-color="#302024" stop-opacity="0"/>
</linearGradient>
<linearGradient id="paint3_linear_869_138" x1="1423" y1="1833.5" x2="2305.85" y2="1850.77" gradientUnits="userSpaceOnUse">
<stop stop-color="#9399F0"/>
<stop offset="0.615385" stop-color="#302024" stop-opacity="0"/>
</linearGradient>
<linearGradient id="paint4_linear_869_138" x1="349.953" y1="800" x2="2424.97" y2="486.785" gradientUnits="userSpaceOnUse">
<stop stop-color="#9399F0"/>
<stop offset="1" stop-opacity="0"/>
</linearGradient>
<linearGradient id="paint5_linear_869_138" x1="1663.5" y1="312.5" x2="1918" y2="347" gradientUnits="userSpaceOnUse">
<stop stop-color="#9399F0"/>
<stop offset="1" stop-color="#302024" stop-opacity="0"/>
</linearGradient>
</defs>
</svg>
