<svg width="1922" height="4803" viewBox="0 0 1922 4803" fill="none" xmlns="http://www.w3.org/2000/svg">
<path d="M1922 4803L1922 45.6C1922 45.6 1685.86 -100.758 968.502 130.937C251.145 362.633 0.00488779 198.859 0.00488779 198.859L0.00565076 4803L1048.17 4803L1922 4803Z" fill="url(#paint0_linear_994_157)"/>
<path d="M1922 4803L1922 240.657C1922 240.657 1746.56 -48.1976 943.002 141.387C139.44 330.971 0.00907106 115.844 0.00907106 115.844L0.00886822 4803L994.572 4803L1922 4803Z" fill="url(#paint1_linear_994_157)" fill-opacity="0.5"/>
<path d="M1922 4803L1922 137.904C1922 137.904 1738.85 -74.6455 953.505 176.731C168.159 428.107 0.0138785 266.779 0.0138785 266.779L0.0138883 4803L987.061 4803L1922 4803Z" fill="url(#paint2_linear_994_157)"/>
<defs>
<linearGradient id="paint0_linear_994_157" x1="960.999" y1="34.648" x2="960.999" y2="934.929" gradientUnits="userSpaceOnUse">
<stop stop-color="#9399F0"/>
<stop offset="1" stop-color="#563457"/>
</linearGradient>
<linearGradient id="paint1_linear_994_157" x1="1552.73" y1="195.79" x2="654.313" y2="1044.44" gradientUnits="userSpaceOnUse">
<stop offset="0.384615" stop-color="#2C192C"/>
<stop offset="1" stop-color="#9399F0" stop-opacity="0.7"/>
</linearGradient>
<linearGradient id="paint2_linear_994_157" x1="2794.31" y1="1756.14" x2="1247.9" y2="22.3473" gradientUnits="userSpaceOnUse">
<stop offset="0.0384615" stop-color="#9399F0" stop-opacity="0.3"/>
<stop offset="1" stop-color="#563457" stop-opacity="0.3"/>
</linearGradient>
</defs>
</svg>
