<svg width="1919" height="3008" viewBox="0 0 1919 3008" fill="none" xmlns="http://www.w3.org/2000/svg">
<path d="M1918.04 2884.13L1918.04 199.377C1918.04 199.377 1862 -91.2449 969.502 172.401C77 436.047 0.0352902 90.8878 0.0352902 90.8878L0.0353468 2925.34C0.0353468 2925.34 214.033 3079.7 995.038 2895.07C1776.04 2710.44 1918.04 2884.13 1918.04 2884.13Z" fill="url(#paint0_linear_1139_197)"/>
<path d="M1918.04 2920.72L1918.04 71.9036C1918.04 71.9036 1722 -6.58097 950.5 256.078C179 518.737 0.00109863 0.000226689 0.00109863 0.000226689L0.00097798 2837.04C0.00097798 2837.04 237.038 3138.82 1015.54 2940.48C1794.04 2742.13 1918.04 2920.72 1918.04 2920.72Z" fill="url(#paint1_linear_1139_197)" fill-opacity="0.5"/>
<path d="M1918.04 2808.87L1918.04 28.5956C1918.04 28.5956 1750.5 -55.0839 972.538 211.165C194.577 477.414 0.0390035 144.941 0.0390035 144.941L0.0390014 2884.14C0.0390014 2884.14 137.538 3043.61 969.538 2841.83C1801.54 2640.05 1918.04 2808.87 1918.04 2808.87Z" fill="url(#paint2_linear_1139_197)"/>
<defs>
<linearGradient id="paint0_linear_1139_197" x1="959.04" y1="-164" x2="959.04" y2="1612.88" gradientUnits="userSpaceOnUse">
<stop stop-color="#9399F0"/>
<stop offset="1" stop-color="#563457"/>
</linearGradient>
<linearGradient id="paint1_linear_1139_197" x1="1549.54" y1="124.256" x2="155.318" y2="773.467" gradientUnits="userSpaceOnUse">
<stop offset="0.384615" stop-color="#2C192C"/>
<stop offset="1" stop-color="#9399F0" stop-opacity="0.7"/>
</linearGradient>
<linearGradient id="paint2_linear_1139_197" x1="1179.04" y1="1113.22" x2="1777.35" y2="508.127" gradientUnits="userSpaceOnUse">
<stop offset="0.0384615" stop-color="#9399F0" stop-opacity="0.3"/>
<stop offset="1" stop-color="#563457" stop-opacity="0.3"/>
</linearGradient>
</defs>
</svg>
