<svg width="1919" height="2351" viewBox="0 0 1919 2351" fill="none" xmlns="http://www.w3.org/2000/svg">
<path d="M1918.04 2254.66L1918.04 13.3292C1918.04 13.3292 1762.5 -60.3166 969.5 145.522C176.5 351.361 0.0353211 82.1223 0.0353211 82.1223L0.0353777 2286.71C0.0353777 2286.71 214.031 2406.77 995.036 2263.17C1776.04 2119.56 1918.04 2254.66 1918.04 2254.66Z" fill="url(#paint0_linear_1337_100)"/>
<path d="M1918.04 2283.11L1918.04 67.3541C1918.04 67.3541 1722 6.31015 950.5 210.602C179 414.893 0.00109863 11.4289 0.00109863 11.4289L0.000844777 2218.03C0.000844777 2218.03 237.038 2452.75 1015.54 2298.48C1794.04 2144.21 1918.04 2283.11 1918.04 2283.11Z" fill="url(#paint1_linear_1337_100)" fill-opacity="0.5"/>
<path d="M1918.04 2196.12L1918.04 33.6675C1918.04 33.6675 1603 -29.9083 926.5 225.241C250 480.39 0.0390018 124.159 0.0390018 124.159L0.0389997 2254.66C0.0389997 2254.66 137.538 2378.69 969.538 2221.75C1801.54 2064.81 1918.04 2196.12 1918.04 2196.12Z" fill="url(#paint2_linear_1337_100)"/>
<defs>
<linearGradient id="paint0_linear_1337_100" x1="959.04" y1="-116.128" x2="959.04" y2="1265.9" gradientUnits="userSpaceOnUse">
<stop stop-color="#9399F0"/>
<stop offset="1" stop-color="#563457"/>
</linearGradient>
<linearGradient id="paint1_linear_1337_100" x1="1549.54" y1="108.073" x2="300.644" y2="855.763" gradientUnits="userSpaceOnUse">
<stop offset="0.384615" stop-color="#2C192C"/>
<stop offset="1" stop-color="#9399F0" stop-opacity="0.7"/>
</linearGradient>
<linearGradient id="paint2_linear_1337_100" x1="1179.04" y1="877.273" x2="1628.83" y2="292.42" gradientUnits="userSpaceOnUse">
<stop offset="0.0384615" stop-color="#9399F0" stop-opacity="0.3"/>
<stop offset="1" stop-color="#563457" stop-opacity="0.3"/>
</linearGradient>
</defs>
</svg>
