<svg width="1909" height="2640" viewBox="0 0 1909 2640" fill="none" xmlns="http://www.w3.org/2000/svg">
<path d="M1908.81 2639.5L1908.81 161.812C1908.81 161.812 1823.5 -19.1885 1007 261.314C190.501 541.816 0.0020752 83.0001 0.0020752 83.0001L0.00210502 2586.5C0.00210502 2586.5 86.5011 2689.71 931.001 2441.5C1775.5 2193.29 1908.81 2639.5 1908.81 2639.5Z" fill="url(#paint0_linear_1068_120)"/>
<path d="M1909 2599L1909 36.1964C1909 36.1964 1727.68 -57.3946 1011.1 333.527C294.53 724.448 0.000854492 0.000116834 0.000854492 0.000116834L0.000899802 2534.5C0.000899802 2534.5 236.999 2660.47 941.499 2456.5C1646 2252.53 1909 2599 1909 2599Z" fill="url(#paint1_linear_1068_120)"/>
<defs>
<linearGradient id="paint0_linear_1068_120" x1="2657.84" y1="1958.93" x2="803.39" y2="242.747" gradientUnits="userSpaceOnUse">
<stop offset="0.0384616" stop-color="#302024" stop-opacity="0.7"/>
<stop offset="1" stop-color="#BDD7EE" stop-opacity="0.6"/>
</linearGradient>
<linearGradient id="paint1_linear_1068_120" x1="2658.12" y1="2002.87" x2="746.305" y2="291.902" gradientUnits="userSpaceOnUse">
<stop offset="0.0384616" stop-color="#302024" stop-opacity="0.4"/>
<stop offset="1" stop-color="#BDD7EE" stop-opacity="0.4"/>
</linearGradient>
</defs>
</svg>
