<svg width="390" height="1254" viewBox="0 0 390 1254" fill="none" xmlns="http://www.w3.org/2000/svg">
<path d="M390.008 1235.75L390.008 16.5207C390.008 16.5207 353.008 -4.15919 205.318 22.3808C57.6277 48.9208 0.00805875 18.6625 0.00805875 18.6625L0.000260739 1219.21C0.000260739 1219.21 22.0154 1214.18 188.008 1242.87C354 1271.55 390.008 1235.75 390.008 1235.75Z" fill="url(#paint0_linear_1260_109)"/>
<path d="M390.007 1227.16L390.008 0.605273C390.008 0.605273 357.508 -6.88133 194.508 30.8056C31.5076 68.4926 0.0109254 0.605248 0.0109254 0.605248L0.00691228 1227.16C0.00691228 1227.16 21.0075 1217.53 187 1243.49C352.992 1269.46 390.007 1227.16 390.007 1227.16Z" fill="url(#paint1_linear_1260_109)" fill-opacity="0.5"/>
<path d="M390.008 1246.4L390.008 28.6631C390.008 28.6631 346.008 -6.88141 202.508 26.4088C59.0076 59.6989 0.0105944 30.8052 0.0105944 30.8052L0.0106001 1235.64C0.0106001 1235.64 53.5076 1223.6 192.008 1240.35C330.508 1257.1 390.008 1246.4 390.008 1246.4Z" fill="url(#paint2_linear_1260_109)"/>
<defs>
<linearGradient id="paint0_linear_1260_109" x1="195.004" y1="-59.2588" x2="195.005" y2="624.349" gradientUnits="userSpaceOnUse">
<stop stop-color="#9399F0"/>
<stop offset="1" stop-color="#563457"/>
</linearGradient>
<linearGradient id="paint1_linear_1260_109" x1="315.078" y1="51.7375" x2="-10.1797" y2="131.796" gradientUnits="userSpaceOnUse">
<stop offset="0.384615" stop-color="#2C192C"/>
<stop offset="1" stop-color="#9399F0" stop-opacity="0.7"/>
</linearGradient>
<linearGradient id="paint2_linear_1260_109" x1="239.73" y1="461.343" x2="436.883" y2="363.119" gradientUnits="userSpaceOnUse">
<stop offset="0.0384615" stop-color="#9399F0" stop-opacity="0.3"/>
<stop offset="1" stop-color="#563457" stop-opacity="0.3"/>
</linearGradient>
</defs>
</svg>
