<svg width="390" height="1996" viewBox="0 0 390 1996" fill="none" xmlns="http://www.w3.org/2000/svg">
<path d="M390.008 1966.95L390.008 26.2953C390.008 26.2953 353.008 -6.62105 205.318 35.6228C57.6279 77.8667 0.0083029 29.7044 0.0083029 29.7044L0.00050488 1940.62C0.00050488 1940.62 22.0156 1932.62 188.008 1978.28C354 2023.94 390.008 1966.95 390.008 1966.95Z" fill="url(#paint0_linear_1136_178)"/>
<path d="M390.008 1953.29L390.008 0.963417C390.008 0.963417 357.508 -10.9531 194.508 49.0335C31.5078 109.02 0.0111696 0.963335 0.0111696 0.963335L0.00727383 1953.29C0.00727383 1953.29 21.0078 1937.96 187 1979.28C352.992 2020.6 390.008 1953.29 390.008 1953.29Z" fill="url(#paint1_linear_1136_178)" fill-opacity="0.5"/>
<path d="M390.008 1983.91L390.008 45.6238C390.008 45.6238 346.008 -10.9526 202.508 42.0356C59.0078 95.0238 0.0108385 49.0334 0.0108385 49.0334L0.0108442 1966.78C0.0108442 1966.78 53.5078 1947.62 192.008 1974.28C330.508 2000.94 390.008 1983.91 390.008 1983.91Z" fill="url(#paint2_linear_1136_178)"/>
<defs>
<linearGradient id="paint0_linear_1136_178" x1="195.005" y1="-94.3235" x2="195.005" y2="993.781" gradientUnits="userSpaceOnUse">
<stop stop-color="#9399F0"/>
<stop offset="1" stop-color="#563457"/>
</linearGradient>
<linearGradient id="paint1_linear_1136_178" x1="315.079" y1="82.351" x2="-21.8283" y2="134.449" gradientUnits="userSpaceOnUse">
<stop offset="0.384615" stop-color="#2C192C"/>
<stop offset="1" stop-color="#9399F0" stop-opacity="0.7"/>
</linearGradient>
<linearGradient id="paint2_linear_1136_178" x1="239.731" y1="734.323" x2="463.861" y2="664.169" gradientUnits="userSpaceOnUse">
<stop offset="0.0384615" stop-color="#9399F0" stop-opacity="0.3"/>
<stop offset="1" stop-color="#563457" stop-opacity="0.3"/>
</linearGradient>
</defs>
</svg>
