<svg width="380" height="3475" viewBox="0 0 380 3475" fill="none" xmlns="http://www.w3.org/2000/svg">
<path d="M379.677 3474.65L379.671 80.1697C379.671 80.1697 362.314 -5.63213 197.335 49.704C32.3559 105.04 5.05447e-05 39.0495 5.05447e-05 39.0495L0.00882053 3474.65C0.00882053 3474.65 180.516 3474.65 187 3474.65C193.484 3474.65 379.677 3474.65 379.677 3474.65Z" fill="url(#paint0_linear_1171_136)"/>
<path d="M379.677 3474.65L379.675 54.0563C379.675 54.0563 344.814 -12.0152 194.29 66.3795C43.7663 144.774 0.00882053 0 0.00882053 0V3474.65C0.00882053 3474.65 180.516 3474.65 187 3474.65C193.484 3474.65 337.314 3474.65 379.677 3474.65Z" fill="url(#paint1_linear_1171_136)" fill-opacity="0.5"/>
<path d="M379.677 3474.65V25.2227C379.677 25.2227 309.314 -3.06682 197.335 76.5488C85.3559 156.164 0 21.7776 0 21.7776L0.00882053 3474.65C0.00882053 3474.65 33.5164 3473.88 187 3474.65C340.484 3475.43 359.814 3474.65 379.677 3474.65Z" fill="url(#paint2_linear_1171_136)"/>
<defs>
<linearGradient id="paint0_linear_1171_136" x1="189.839" y1="-83.7944" x2="189.839" y2="1918.24" gradientUnits="userSpaceOnUse">
<stop stop-color="#9399F0"/>
<stop offset="1" stop-color="#563457"/>
</linearGradient>
<linearGradient id="paint1_linear_1171_136" x1="73.1755" y1="213.773" x2="406.474" y2="241.124" gradientUnits="userSpaceOnUse">
<stop offset="0.384615" stop-color="#2C192C"/>
<stop offset="1" stop-color="#9399F0" stop-opacity="0.7"/>
</linearGradient>
<linearGradient id="paint2_linear_1171_136" x1="56.4833" y1="684.049" x2="197.202" y2="990.233" gradientUnits="userSpaceOnUse">
<stop stop-color="#563457" stop-opacity="0.3"/>
<stop offset="0.961538" stop-color="#9399F0" stop-opacity="0.3"/>
</linearGradient>
</defs>
</svg>
