<svg width="380" height="5203" viewBox="0 0 380 5203" fill="none" xmlns="http://www.w3.org/2000/svg">
<path d="M380 5202.48L379.994 120.035C379.994 120.035 379.994 -16.5 194.456 58.4675C8.91763 133.435 5.05878e-05 58.4675 5.05878e-05 58.4675L0.00882805 5202.48C0.00882805 5202.48 180.67 5202.48 187.159 5202.48C193.648 5202.48 380 5202.48 380 5202.48Z" fill="url(#paint0_linear_922_204)"/>
<path d="M380 5202.48L379.999 80.9366C379.999 80.9366 370.662 -19 186.162 80.9366C1.66211 180.873 0.00882805 0 0.00882805 0V5202.48C0.00882805 5202.48 180.67 5202.48 187.159 5202.48C193.648 5202.48 337.602 5202.48 380 5202.48Z" fill="url(#paint1_linear_922_204)" fill-opacity="0.5"/>
<path d="M380 5202.48V37.7651C380 37.7651 343.162 -12 194.456 99.1672C45.7495 210.334 0 32.6069 0 32.6069L0.00882805 5202.48C0.00882805 5202.48 33.545 5201.32 187.159 5202.48C340.774 5203.65 360.121 5202.48 380 5202.48Z" fill="url(#paint2_linear_922_204)"/>
<defs>
<linearGradient id="paint0_linear_922_204" x1="190.001" y1="-125.463" x2="190.001" y2="2872.11" gradientUnits="userSpaceOnUse">
<stop stop-color="#9399F0"/>
<stop offset="1" stop-color="#563457"/>
</linearGradient>
<linearGradient id="paint1_linear_922_204" x1="73.2379" y1="320.074" x2="408.059" y2="338.441" gradientUnits="userSpaceOnUse">
<stop offset="0.384615" stop-color="#2C192C"/>
<stop offset="1" stop-color="#9399F0" stop-opacity="0.7"/>
</linearGradient>
<linearGradient id="paint2_linear_922_204" x1="56.5314" y1="1024.2" x2="315.762" y2="1401.24" gradientUnits="userSpaceOnUse">
<stop stop-color="#563457" stop-opacity="0.3"/>
<stop offset="0.961538" stop-color="#9399F0" stop-opacity="0.3"/>
</linearGradient>
</defs>
</svg>
